<?xml version="1.0" encoding="UTF-8" standalone="no"?>
<!DOCTYPE svg PUBLIC "-//W3C//DTD SVG 1.1//EN"
 "http://www.w3.org/Graphics/SVG/1.1/DTD/svg11.dtd">
<!-- Generated by graphviz version 12.2.1 (20241206.2353)
 -->
<!-- Title: crawl_discovered Pages: 1 -->
<svg width="554pt" height="293pt"
 viewBox="0.00 0.00 554.25 292.50" xmlns="http://www.w3.org/2000/svg" xmlns:xlink="http://www.w3.org/1999/xlink">
<g id="graph0" class="graph" transform="scale(1 1) rotate(0) translate(4 288.5)">
<title>crawl_discovered</title>
<polygon fill="white" stroke="none" points="-4,4 -4,-288.5 550.25,-288.5 550.25,4 -4,4"/>
<text text-anchor="middle" x="273.12" y="-267.2" font-family="Times,serif" font-size="14.00">dynamic crawl from the registry &#45;&#45; repos DISCOVERED, not listed</text>
<g id="clust1" class="cluster">
<title>cluster_acme&#45;checkout</title>
<polygon fill="#f2f2f2" stroke="black" points="266.25,-134 266.25,-252 406.5,-252 406.5,-134 266.25,-134"/>
<text text-anchor="middle" x="336.38" y="-234.7" font-family="Times,serif" font-size="14.00">acme&#45;checkout</text>
</g>
<g id="clust2" class="cluster">
<title>cluster_acme&#45;checkout_v1.4.0</title>
<polygon fill="white" stroke="black" points="274.25,-142 274.25,-219 398.5,-219 398.5,-142 274.25,-142"/>
<text text-anchor="middle" x="336.38" y="-201.7" font-family="Times,serif" font-size="14.00">tag v1.4.0</text>
</g>
<g id="clust3" class="cluster">
<title>cluster_acme&#45;logger</title>
<polygon fill="#f2f2f2" stroke="black" points="414.5,-134 414.5,-252 538.25,-252 538.25,-134 414.5,-134"/>
<text text-anchor="middle" x="476.38" y="-234.7" font-family="Times,serif" font-size="14.00">acme&#45;logger</text>
</g>
<g id="clust4" class="cluster">
<title>cluster_acme&#45;logger_main</title>
<polygon fill="white" stroke="black" points="422.5,-142 422.5,-219 530.25,-219 530.25,-142 422.5,-142"/>
<text text-anchor="middle" x="476.38" y="-201.7" font-family="Times,serif" font-size="14.00">branch main</text>
</g>
<g id="clust5" class="cluster">
<title>cluster_acme&#45;ui&#45;kit</title>
<polygon fill="#f2f2f2" stroke="black" points="419,-8 419,-126 533.75,-126 533.75,-8 419,-8"/>
<text text-anchor="middle" x="476.38" y="-108.7" font-family="Times,serif" font-size="14.00">acme&#45;ui&#45;kit</text>
</g>
<g id="clust6" class="cluster">
<title>cluster_acme&#45;ui&#45;kit_v3.1.0</title>
<polygon fill="white" stroke="black" points="427,-16 427,-93 525.75,-93 525.75,-16 427,-16"/>
<text text-anchor="middle" x="476.38" y="-75.7" font-family="Times,serif" font-size="14.00">tag v3.1.0</text>
</g>
<g id="clust7" class="cluster">
<title>cluster_registry</title>
<polygon fill="#f2f2f2" stroke="black" points="4.5,-71 4.5,-189 104.75,-189 104.75,-71 4.5,-71"/>
<text text-anchor="middle" x="54.62" y="-171.7" font-family="Times,serif" font-size="14.00">registry</text>
</g>
<g id="clust8" class="cluster">
<title>cluster_registry_main</title>
<polygon fill="white" stroke="black" points="12.5,-79 12.5,-156 96.75,-156 96.75,-79 12.5,-79"/>
<text text-anchor="middle" x="54.62" y="-138.7" font-family="Times,serif" font-size="14.00">branch main</text>
</g>
<g id="clust9" class="cluster">
<title>cluster_acme&#45;billing</title>
<polygon fill="#f2f2f2" stroke="black" points="276,-8 276,-126 396.75,-126 396.75,-8 276,-8"/>
<text text-anchor="middle" x="336.38" y="-108.7" font-family="Times,serif" font-size="14.00">acme&#45;billing</text>
</g>
<g id="clust10" class="cluster">
<title>cluster_acme&#45;billing_9f3a1c2</title>
<polygon fill="white" stroke="black" points="284,-16 284,-93 388.75,-93 388.75,-16 284,-16"/>
<text text-anchor="middle" x="336.38" y="-75.7" font-family="Times,serif" font-size="14.00">sha 9f3a1c2</text>
</g>
<g id="clust11" class="cluster">
<title>cluster_acme&#45;store&#45;web</title>
<polygon fill="#f2f2f2" stroke="black" points="112.75,-14 112.75,-132 258.25,-132 258.25,-14 112.75,-14"/>
<text text-anchor="middle" x="185.5" y="-114.7" font-family="Times,serif" font-size="14.00">acme&#45;store&#45;web</text>
</g>
<g id="clust12" class="cluster">
<title>cluster_acme&#45;store&#45;web_main</title>
<polygon fill="white" stroke="black" points="120.75,-22 120.75,-99 250.25,-99 250.25,-22 120.75,-22"/>
<text text-anchor="middle" x="185.5" y="-81.7" font-family="Times,serif" font-size="14.00">branch main</text>
</g>
<!-- registry -->
<g id="node1" class="node">
<title>registry</title>
<polygon fill="gold" stroke="black" points="84.25,-123 24,-123 24,-87 84.25,-87 84.25,-123"/>
<text text-anchor="middle" x="54.12" y="-99.2" font-family="Helvetica,sans-Serif" font-size="14.00">registry</text>
</g>
<!-- acme&#45;checkout -->
<g id="node2" class="node">
<title>acme&#45;checkout</title>
<path fill="none" stroke="black" d="M378.5,-186C378.5,-186 294.25,-186 294.25,-186 288.25,-186 282.25,-180 282.25,-174 282.25,-174 282.25,-162 282.25,-162 282.25,-156 288.25,-150 294.25,-150 294.25,-150 378.5,-150 378.5,-150 384.5,-150 390.5,-156 390.5,-162 390.5,-162 390.5,-174 390.5,-174 390.5,-180 384.5,-186 378.5,-186"/>
<text text-anchor="middle" x="336.38" y="-162.2" font-family="Helvetica,sans-Serif" font-size="14.00">acme&#45;checkout</text>
</g>
<!-- registry&#45;&gt;acme&#45;checkout -->
<g id="edge4" class="edge">
<title>registry&#45;&gt;acme&#45;checkout</title>
<path fill="none" stroke="black" d="M84.59,-111.62C128.55,-121.51 212.42,-140.36 271.01,-153.53"/>
<polygon fill="black" stroke="black" points="270.01,-156.89 280.53,-155.67 271.54,-150.06 270.01,-156.89"/>
</g>
<!-- acme&#45;store&#45;web -->
<g id="node6" class="node">
<title>acme&#45;store&#45;web</title>
<path fill="none" stroke="black" d="M230.25,-66C230.25,-66 140.75,-66 140.75,-66 134.75,-66 128.75,-60 128.75,-54 128.75,-54 128.75,-42 128.75,-42 128.75,-36 134.75,-30 140.75,-30 140.75,-30 230.25,-30 230.25,-30 236.25,-30 242.25,-36 242.25,-42 242.25,-42 242.25,-54 242.25,-54 242.25,-60 236.25,-66 230.25,-66"/>
<text text-anchor="middle" x="185.5" y="-42.2" font-family="Helvetica,sans-Serif" font-size="14.00">acme&#45;store&#45;web</text>
</g>
<!-- registry&#45;&gt;acme&#45;store&#45;web -->
<g id="edge3" class="edge">
<title>registry&#45;&gt;acme&#45;store&#45;web</title>
<path fill="none" stroke="black" d="M84.48,-92.07C98.67,-85.81 116.13,-78.12 132.47,-70.92"/>
<polygon fill="black" stroke="black" points="133.87,-74.13 141.61,-66.9 131.05,-67.72 133.87,-74.13"/>
</g>
<!-- acme&#45;logger -->
<g id="node3" class="node">
<title>acme&#45;logger</title>
<path fill="none" stroke="black" d="M510.25,-186C510.25,-186 442.5,-186 442.5,-186 436.5,-186 430.5,-180 430.5,-174 430.5,-174 430.5,-162 430.5,-162 430.5,-156 436.5,-150 442.5,-150 442.5,-150 510.25,-150 510.25,-150 516.25,-150 522.25,-156 522.25,-162 522.25,-162 522.25,-174 522.25,-174 522.25,-180 516.25,-186 510.25,-186"/>
<text text-anchor="middle" x="476.38" y="-162.2" font-family="Helvetica,sans-Serif" font-size="14.00">acme&#45;logger</text>
</g>
<!-- acme&#45;checkout&#45;&gt;acme&#45;logger -->
<g id="edge2" class="edge">
<title>acme&#45;checkout&#45;&gt;acme&#45;logger</title>
<path fill="none" stroke="black" d="M390.73,-168C399.9,-168 409.46,-168 418.72,-168"/>
<polygon fill="black" stroke="black" points="418.71,-171.5 428.71,-168 418.71,-164.5 418.71,-171.5"/>
</g>
<!-- acme&#45;ui&#45;kit -->
<g id="node4" class="node">
<title>acme&#45;ui&#45;kit</title>
<path fill="none" stroke="black" d="M505.75,-60C505.75,-60 447,-60 447,-60 441,-60 435,-54 435,-48 435,-48 435,-36 435,-36 435,-30 441,-24 447,-24 447,-24 505.75,-24 505.75,-24 511.75,-24 517.75,-30 517.75,-36 517.75,-36 517.75,-48 517.75,-48 517.75,-54 511.75,-60 505.75,-60"/>
<text text-anchor="middle" x="476.38" y="-36.2" font-family="Helvetica,sans-Serif" font-size="14.00">acme&#45;ui&#45;kit</text>
</g>
<!-- acme&#45;checkout&#45;&gt;acme&#45;ui&#45;kit -->
<g id="edge1" class="edge">
<title>acme&#45;checkout&#45;&gt;acme&#45;ui&#45;kit</title>
<path fill="none" stroke="black" d="M357.44,-149.68C381.05,-128.12 420.41,-92.19 447.1,-67.82"/>
<polygon fill="black" stroke="black" points="449.14,-70.69 454.17,-61.36 444.42,-65.52 449.14,-70.69"/>
</g>
<!-- acme&#45;billing -->
<g id="node5" class="node">
<title>acme&#45;billing</title>
<path fill="none" stroke="black" d="M368.75,-60C368.75,-60 304,-60 304,-60 298,-60 292,-54 292,-48 292,-48 292,-36 292,-36 292,-30 298,-24 304,-24 304,-24 368.75,-24 368.75,-24 374.75,-24 380.75,-30 380.75,-36 380.75,-36 380.75,-48 380.75,-48 380.75,-54 374.75,-60 368.75,-60"/>
<text text-anchor="middle" x="336.38" y="-36.2" font-family="Helvetica,sans-Serif" font-size="14.00">acme&#45;billing</text>
</g>
<!-- acme&#45;billing&#45;&gt;acme&#45;ui&#45;kit -->
<g id="edge5" class="edge">
<title>acme&#45;billing&#45;&gt;acme&#45;ui&#45;kit</title>
<path fill="none" stroke="black" d="M381.04,-42C394.49,-42 409.43,-42 423.38,-42"/>
<polygon fill="black" stroke="black" points="423.3,-45.5 433.3,-42 423.3,-38.5 423.3,-45.5"/>
</g>
<!-- acme&#45;store&#45;web&#45;&gt;acme&#45;billing -->
<g id="edge6" class="edge">
<title>acme&#45;store&#45;web&#45;&gt;acme&#45;billing</title>
<path fill="none" stroke="black" d="M242.36,-45.75C254.87,-45.24 268.12,-44.71 280.59,-44.21"/>
<polygon fill="black" stroke="black" points="280.4,-47.72 290.25,-43.82 280.12,-40.72 280.4,-47.72"/>
</g>
</g>
</svg>
