<?xml version="1.0" encoding="UTF-8" standalone="no"?>
<!DOCTYPE svg PUBLIC "-//W3C//DTD SVG 1.1//EN"
 "http://www.w3.org/Graphics/SVG/1.1/DTD/svg11.dtd">
<!-- Generated by graphviz version 12.2.1 (20241206.2353)
 -->
<!-- Title: entrypoint_drift Pages: 1 -->
<svg width="383pt" height="293pt"
 viewBox="0.00 0.00 383.25 292.50" xmlns="http://www.w3.org/2000/svg" xmlns:xlink="http://www.w3.org/1999/xlink">
<g id="graph0" class="graph" transform="scale(1 1) rotate(0) translate(4 288.5)">
<title>entrypoint_drift</title>
<polygon fill="white" stroke="none" points="-4,4 -4,-288.5 379.25,-288.5 379.25,4 -4,4"/>
<text text-anchor="middle" x="187.62" y="-267.2" font-family="Times,serif" font-size="14.00">drift from entrypoint app@main &#45;&#45; same repo, two revs = salmon</text>
<g id="clust1" class="cluster">
<title>cluster_app</title>
<polygon fill="#f2f2f2" stroke="black" points="16.31,-71 16.31,-189 116.56,-189 116.56,-71 16.31,-71"/>
<text text-anchor="middle" x="66.44" y="-171.7" font-family="Times,serif" font-size="14.00">app</text>
</g>
<g id="clust2" class="cluster">
<title>cluster_app_main</title>
<polygon fill="white" stroke="black" points="24.31,-79 24.31,-156 108.56,-156 108.56,-79 24.31,-79"/>
<text text-anchor="middle" x="66.44" y="-138.7" font-family="Times,serif" font-size="14.00">branch main</text>
</g>
<g id="clust3" class="cluster">
<title>cluster_acme&#45;libb</title>
<polygon fill="#f2f2f2" stroke="black" points="124.56,-134 124.56,-252 231.81,-252 231.81,-134 124.56,-134"/>
<text text-anchor="middle" x="178.19" y="-234.7" font-family="Times,serif" font-size="14.00">acme&#45;libb</text>
</g>
<g id="clust4" class="cluster">
<title>cluster_acme&#45;libb_v1.0.0</title>
<polygon fill="white" stroke="black" points="132.56,-142 132.56,-219 223.81,-219 223.81,-142 132.56,-142"/>
<text text-anchor="middle" x="178.19" y="-201.7" font-family="Times,serif" font-size="14.00">tag v1.0.0</text>
</g>
<g id="clust5" class="cluster">
<title>cluster_acme&#45;core</title>
<polygon fill="#f2f2f2" stroke="black" points="239.81,-28 239.81,-231 352.31,-231 352.31,-28 239.81,-28"/>
<text text-anchor="middle" x="296.06" y="-213.7" font-family="Times,serif" font-size="14.00">acme&#45;core</text>
</g>
<g id="clust6" class="cluster">
<title>cluster_acme&#45;core_v2.0.0</title>
<polygon fill="white" stroke="black" points="247.81,-36 247.81,-113 344.31,-113 344.31,-36 247.81,-36"/>
<text text-anchor="middle" x="296.06" y="-95.7" font-family="Times,serif" font-size="14.00">tag v2.0.0</text>
</g>
<g id="clust7" class="cluster">
<title>cluster_acme&#45;core_v2.1.0</title>
<polygon fill="white" stroke="black" points="247.81,-121 247.81,-198 344.31,-198 344.31,-121 247.81,-121"/>
<text text-anchor="middle" x="296.06" y="-180.7" font-family="Times,serif" font-size="14.00">tag v2.1.0</text>
</g>
<g id="clust8" class="cluster">
<title>cluster_acme&#45;liba</title>
<polygon fill="#f2f2f2" stroke="black" points="124.56,-8 124.56,-126 231.81,-126 231.81,-8 124.56,-8"/>
<text text-anchor="middle" x="178.19" y="-108.7" font-family="Times,serif" font-size="14.00">acme&#45;liba</text>
</g>
<g id="clust9" class="cluster">
<title>cluster_acme&#45;liba_v1.0.0</title>
<polygon fill="white" stroke="black" points="132.56,-16 132.56,-93 223.81,-93 223.81,-16 132.56,-16"/>
<text text-anchor="middle" x="178.19" y="-75.7" font-family="Times,serif" font-size="14.00">tag v1.0.0</text>
</g>
<!-- app@main -->
<g id="node1" class="node">
<title>app@main</title>
<path fill="none" stroke="black" d="M80.94,-123C80.94,-123 50.94,-123 50.94,-123 44.94,-123 38.94,-117 38.94,-111 38.94,-111 38.94,-99 38.94,-99 38.94,-93 44.94,-87 50.94,-87 50.94,-87 80.94,-87 80.94,-87 86.94,-87 92.94,-93 92.94,-99 92.94,-99 92.94,-111 92.94,-111 92.94,-117 86.94,-123 80.94,-123"/>
<text text-anchor="middle" x="65.94" y="-99.2" font-family="Helvetica,sans-Serif" font-size="14.00">app</text>
</g>
<!-- acme&#45;libb@v1.0.0 -->
<g id="node2" class="node">
<title>acme&#45;libb@v1.0.0</title>
<path fill="none" stroke="black" d="M203.81,-186C203.81,-186 152.56,-186 152.56,-186 146.56,-186 140.56,-180 140.56,-174 140.56,-174 140.56,-162 140.56,-162 140.56,-156 146.56,-150 152.56,-150 152.56,-150 203.81,-150 203.81,-150 209.81,-150 215.81,-156 215.81,-162 215.81,-162 215.81,-174 215.81,-174 215.81,-180 209.81,-186 203.81,-186"/>
<text text-anchor="middle" x="178.19" y="-162.2" font-family="Helvetica,sans-Serif" font-size="14.00">acme&#45;libb</text>
</g>
<!-- app@main&#45;&gt;acme&#45;libb@v1.0.0 -->
<g id="edge2" class="edge">
<title>app@main&#45;&gt;acme&#45;libb@v1.0.0</title>
<path fill="none" stroke="black" d="M93.35,-120.09C105.85,-127.24 121.1,-135.95 135.14,-143.97"/>
<polygon fill="black" stroke="black" points="133.36,-146.99 143.78,-148.91 136.84,-140.91 133.36,-146.99"/>
</g>
<!-- acme&#45;liba@v1.0.0 -->
<g id="node5" class="node">
<title>acme&#45;liba@v1.0.0</title>
<path fill="none" stroke="black" d="M203.81,-60C203.81,-60 152.56,-60 152.56,-60 146.56,-60 140.56,-54 140.56,-48 140.56,-48 140.56,-36 140.56,-36 140.56,-30 146.56,-24 152.56,-24 152.56,-24 203.81,-24 203.81,-24 209.81,-24 215.81,-30 215.81,-36 215.81,-36 215.81,-48 215.81,-48 215.81,-54 209.81,-60 203.81,-60"/>
<text text-anchor="middle" x="178.19" y="-36.2" font-family="Helvetica,sans-Serif" font-size="14.00">acme&#45;liba</text>
</g>
<!-- app@main&#45;&gt;acme&#45;liba@v1.0.0 -->
<g id="edge1" class="edge">
<title>app@main&#45;&gt;acme&#45;liba@v1.0.0</title>
<path fill="none" stroke="black" d="M93.35,-89.91C105.85,-82.76 121.1,-74.05 135.14,-66.03"/>
<polygon fill="black" stroke="black" points="136.84,-69.09 143.78,-61.09 133.36,-63.01 136.84,-69.09"/>
</g>
<!-- acme&#45;core@v2.1.0 -->
<g id="node4" class="node">
<title>acme&#45;core@v2.1.0</title>
<polygon fill="salmon" stroke="black" points="336.31,-165 255.81,-165 255.81,-129 336.31,-129 336.31,-165"/>
<text text-anchor="middle" x="296.06" y="-141.2" font-family="Helvetica,sans-Serif" font-size="14.00">acme&#45;core</text>
</g>
<!-- acme&#45;libb@v1.0.0&#45;&gt;acme&#45;core@v2.1.0 -->
<g id="edge3" class="edge">
<title>acme&#45;libb@v1.0.0&#45;&gt;acme&#45;core@v2.1.0</title>
<path fill="none" stroke="black" d="M216.17,-161.3C225.21,-159.66 235.05,-157.88 244.6,-156.14"/>
<polygon fill="black" stroke="black" points="244.93,-159.64 254.14,-154.42 243.68,-152.76 244.93,-159.64"/>
</g>
<!-- acme&#45;core@v2.0.0 -->
<g id="node3" class="node">
<title>acme&#45;core@v2.0.0</title>
<polygon fill="salmon" stroke="black" points="336.31,-80 255.81,-80 255.81,-44 336.31,-44 336.31,-80"/>
<text text-anchor="middle" x="296.06" y="-56.2" font-family="Helvetica,sans-Serif" font-size="14.00">acme&#45;core</text>
</g>
<!-- acme&#45;liba@v1.0.0&#45;&gt;acme&#45;core@v2.0.0 -->
<g id="edge4" class="edge">
<title>acme&#45;liba@v1.0.0&#45;&gt;acme&#45;core@v2.0.0</title>
<path fill="none" stroke="black" d="M216.17,-48.38C225.12,-49.93 234.83,-51.6 244.29,-53.24"/>
<polygon fill="black" stroke="black" points="243.69,-56.68 254.14,-54.94 244.88,-49.79 243.69,-56.68"/>
</g>
</g>
</svg>
