<?xml version="1.0" encoding="UTF-8" standalone="no"?>
<!DOCTYPE svg PUBLIC "-//W3C//DTD SVG 1.1//EN"
 "http://www.w3.org/Graphics/SVG/1.1/DTD/svg11.dtd">
<!-- Generated by graphviz version 12.2.1 (20241206.2353)
 -->
<!-- Title: npm_reaches Pages: 1 -->
<svg width="367pt" height="296pt"
 viewBox="0.00 0.00 366.62 296.49" xmlns="http://www.w3.org/2000/svg" xmlns:xlink="http://www.w3.org/1999/xlink">
<g id="graph0" class="graph" transform="scale(1 1) rotate(0) translate(4 292.49)">
<title>npm_reaches</title>
<polygon fill="white" stroke="none" points="-4,4 -4,-292.49 362.62,-292.49 362.62,4 -4,4"/>
<text text-anchor="middle" x="179.31" y="-271.19" font-family="Times,serif" font-size="14.00">npm transitive reach &#45;&#45; repo &gt; rev &gt; package (recursive rule)</text>
<g id="clust1" class="cluster">
<title>cluster_acme&#45;checkout</title>
<polygon fill="#f2f2f2" stroke="black" points="123.25,-137.99 123.25,-255.99 250,-255.99 250,-137.99 123.25,-137.99"/>
<text text-anchor="middle" x="186.62" y="-238.69" font-family="Times,serif" font-size="14.00">acme&#45;checkout</text>
</g>
<g id="clust2" class="cluster">
<title>cluster_acme&#45;checkout_v1.4.0</title>
<polygon fill="white" stroke="black" points="131.25,-145.99 131.25,-222.99 242,-222.99 242,-145.99 131.25,-145.99"/>
<text text-anchor="middle" x="186.62" y="-205.69" font-family="Times,serif" font-size="14.00">tag v1.4.0</text>
</g>
<g id="clust3" class="cluster">
<title>cluster_acme&#45;logger</title>
<polygon fill="#f2f2f2" stroke="black" points="258,-137.99 258,-255.99 358.25,-255.99 358.25,-137.99 258,-137.99"/>
<text text-anchor="middle" x="308.12" y="-238.69" font-family="Times,serif" font-size="14.00">acme&#45;logger</text>
</g>
<g id="clust4" class="cluster">
<title>cluster_acme&#45;logger_main</title>
<polygon fill="white" stroke="black" points="266,-145.99 266,-222.99 350.25,-222.99 350.25,-145.99 266,-145.99"/>
<text text-anchor="middle" x="308.12" y="-205.69" font-family="Times,serif" font-size="14.00">branch main</text>
</g>
<g id="clust5" class="cluster">
<title>cluster_acme&#45;ui&#45;kit</title>
<polygon fill="#f2f2f2" stroke="black" points="264.62,-11.99 264.62,-129.99 351.5,-129.99 351.5,-11.99 264.62,-11.99"/>
<text text-anchor="middle" x="308.06" y="-112.69" font-family="Times,serif" font-size="14.00">acme&#45;ui&#45;kit</text>
</g>
<g id="clust6" class="cluster">
<title>cluster_acme&#45;ui&#45;kit_v3.1.0</title>
<polygon fill="white" stroke="black" points="272.75,-19.99 272.75,-96.99 343.5,-96.99 343.5,-19.99 272.75,-19.99"/>
<text text-anchor="middle" x="308.12" y="-79.69" font-family="Times,serif" font-size="14.00">tag v3.1.0</text>
</g>
<g id="clust7" class="cluster">
<title>cluster_acme&#45;billing</title>
<polygon fill="#f2f2f2" stroke="black" points="133,-11.99 133,-129.99 240.25,-129.99 240.25,-11.99 133,-11.99"/>
<text text-anchor="middle" x="186.62" y="-112.69" font-family="Times,serif" font-size="14.00">acme&#45;billing</text>
</g>
<g id="clust8" class="cluster">
<title>cluster_acme&#45;billing_9f3a1c2</title>
<polygon fill="white" stroke="black" points="141,-19.99 141,-96.99 232.25,-96.99 232.25,-19.99 141,-19.99"/>
<text text-anchor="middle" x="186.62" y="-79.69" font-family="Times,serif" font-size="14.00">sha 9f3a1c2</text>
</g>
<g id="clust9" class="cluster">
<title>cluster_acme&#45;store&#45;web</title>
<polygon fill="#f2f2f2" stroke="black" points="8,-74.99 8,-192.99 115.25,-192.99 115.25,-74.99 8,-74.99"/>
<text text-anchor="middle" x="61.62" y="-175.69" font-family="Times,serif" font-size="14.00">acme&#45;store&#45;web</text>
</g>
<g id="clust10" class="cluster">
<title>cluster_acme&#45;store&#45;web_main</title>
<polygon fill="white" stroke="black" points="16,-82.99 16,-159.99 107.25,-159.99 107.25,-82.99 16,-82.99"/>
<text text-anchor="middle" x="61.62" y="-142.69" font-family="Times,serif" font-size="14.00">branch main</text>
</g>
<!-- checkout&#45;svc -->
<g id="node1" class="node">
<title>checkout&#45;svc</title>
<path fill="none" stroke="black" d="M222,-189.99C222,-189.99 151.25,-189.99 151.25,-189.99 145.25,-189.99 139.25,-183.99 139.25,-177.99 139.25,-177.99 139.25,-165.99 139.25,-165.99 139.25,-159.99 145.25,-153.99 151.25,-153.99 151.25,-153.99 222,-153.99 222,-153.99 228,-153.99 234,-159.99 234,-165.99 234,-165.99 234,-177.99 234,-177.99 234,-183.99 228,-189.99 222,-189.99"/>
<text text-anchor="middle" x="186.62" y="-166.19" font-family="Helvetica,sans-Serif" font-size="14.00">checkout&#45;svc</text>
</g>
<!-- logger -->
<g id="node2" class="node">
<title>logger</title>
<path fill="none" stroke="black" d="M322.62,-189.99C322.62,-189.99 292.62,-189.99 292.62,-189.99 286.62,-189.99 280.62,-183.99 280.62,-177.99 280.62,-177.99 280.62,-165.99 280.62,-165.99 280.62,-159.99 286.62,-153.99 292.62,-153.99 292.62,-153.99 322.62,-153.99 322.62,-153.99 328.62,-153.99 334.62,-159.99 334.62,-165.99 334.62,-165.99 334.62,-177.99 334.62,-177.99 334.62,-183.99 328.62,-189.99 322.62,-189.99"/>
<text text-anchor="middle" x="307.62" y="-166.19" font-family="Helvetica,sans-Serif" font-size="14.00">logger</text>
</g>
<!-- checkout&#45;svc&#45;&gt;logger -->
<g id="edge2" class="edge">
<title>checkout&#45;svc&#45;&gt;logger</title>
<path fill="none" stroke="slategray" d="M234.32,-171.99C245.79,-171.99 257.94,-171.99 268.93,-171.99"/>
<polygon fill="slategray" stroke="slategray" points="268.8,-175.49 278.8,-171.99 268.8,-168.49 268.8,-175.49"/>
</g>
<!-- ui&#45;kit -->
<g id="node3" class="node">
<title>ui&#45;kit</title>
<path fill="none" stroke="black" d="M322.62,-63.99C322.62,-63.99 292.62,-63.99 292.62,-63.99 286.62,-63.99 280.62,-57.99 280.62,-51.99 280.62,-51.99 280.62,-39.99 280.62,-39.99 280.62,-33.99 286.62,-27.99 292.62,-27.99 292.62,-27.99 322.62,-27.99 322.62,-27.99 328.62,-27.99 334.62,-33.99 334.62,-39.99 334.62,-39.99 334.62,-51.99 334.62,-51.99 334.62,-57.99 328.62,-63.99 322.62,-63.99"/>
<text text-anchor="middle" x="307.62" y="-40.19" font-family="Helvetica,sans-Serif" font-size="14.00">ui&#45;kit</text>
</g>
<!-- checkout&#45;svc&#45;&gt;ui&#45;kit -->
<g id="edge1" class="edge">
<title>checkout&#45;svc&#45;&gt;ui&#45;kit</title>
<path fill="none" stroke="slategray" d="M204.93,-153.67C225.11,-132.3 258.64,-96.8 281.64,-72.44"/>
<polygon fill="slategray" stroke="slategray" points="283.94,-75.1 288.26,-65.43 278.85,-70.3 283.94,-75.1"/>
</g>
<!-- billing&#45;svc -->
<g id="node4" class="node">
<title>billing&#45;svc</title>
<path fill="none" stroke="black" d="M212.25,-63.99C212.25,-63.99 161,-63.99 161,-63.99 155,-63.99 149,-57.99 149,-51.99 149,-51.99 149,-39.99 149,-39.99 149,-33.99 155,-27.99 161,-27.99 161,-27.99 212.25,-27.99 212.25,-27.99 218.25,-27.99 224.25,-33.99 224.25,-39.99 224.25,-39.99 224.25,-51.99 224.25,-51.99 224.25,-57.99 218.25,-63.99 212.25,-63.99"/>
<text text-anchor="middle" x="186.62" y="-40.19" font-family="Helvetica,sans-Serif" font-size="14.00">billing&#45;svc</text>
</g>
<!-- billing&#45;svc&#45;&gt;logger -->
<g id="edge4" class="edge">
<title>billing&#45;svc&#45;&gt;logger</title>
<path fill="none" stroke="slategray" d="M204.93,-64.31C225.11,-85.68 258.64,-121.18 281.64,-145.53"/>
<polygon fill="slategray" stroke="slategray" points="278.85,-147.68 288.26,-152.54 283.94,-142.87 278.85,-147.68"/>
</g>
<!-- billing&#45;svc&#45;&gt;ui&#45;kit -->
<g id="edge3" class="edge">
<title>billing&#45;svc&#45;&gt;ui&#45;kit</title>
<path fill="none" stroke="slategray" d="M224.63,-45.99C238.7,-45.99 254.74,-45.99 268.88,-45.99"/>
<polygon fill="slategray" stroke="slategray" points="268.71,-49.49 278.71,-45.99 268.71,-42.49 268.71,-49.49"/>
</g>
<!-- store&#45;web -->
<g id="node5" class="node">
<title>store&#45;web</title>
<path fill="none" stroke="black" d="M87.25,-126.99C87.25,-126.99 36,-126.99 36,-126.99 30,-126.99 24,-120.99 24,-114.99 24,-114.99 24,-102.99 24,-102.99 24,-96.99 30,-90.99 36,-90.99 36,-90.99 87.25,-90.99 87.25,-90.99 93.25,-90.99 99.25,-96.99 99.25,-102.99 99.25,-102.99 99.25,-114.99 99.25,-114.99 99.25,-120.99 93.25,-126.99 87.25,-126.99"/>
<text text-anchor="middle" x="61.62" y="-103.19" font-family="Helvetica,sans-Serif" font-size="14.00">store&#45;web</text>
</g>
<!-- store&#45;web&#45;&gt;checkout&#45;svc -->
<g id="edge5" class="edge">
<title>store&#45;web&#45;&gt;checkout&#45;svc</title>
<path fill="none" stroke="slategray" d="M98.53,-127.38C111.42,-133.98 126.12,-141.51 139.74,-148.48"/>
<polygon fill="slategray" stroke="slategray" points="138.04,-151.55 148.54,-152.99 141.23,-145.32 138.04,-151.55"/>
</g>
<!-- store&#45;web&#45;&gt;logger -->
<g id="edge8" class="edge">
<title>store&#45;web&#45;&gt;logger</title>
<path fill="none" stroke="slategray" d="M65.92,-127.39C71.92,-154.72 87.47,-205.15 123.25,-226.99 171.33,-256.34 197.8,-248.17 250,-226.99 264.33,-221.17 277.03,-209.8 286.75,-198.9"/>
<polygon fill="slategray" stroke="slategray" points="289.18,-201.45 292.91,-191.53 283.81,-196.96 289.18,-201.45"/>
</g>
<!-- store&#45;web&#45;&gt;ui&#45;kit -->
<g id="edge7" class="edge">
<title>store&#45;web&#45;&gt;ui&#45;kit</title>
<path fill="none" stroke="slategray" d="M68.51,-90.62C76.76,-68.33 94.1,-31.78 123.25,-15.99 172.78,10.85 195.33,-2.4 250,-15.99 256.87,-17.7 263.83,-20.41 270.4,-23.52"/>
<polygon fill="slategray" stroke="slategray" points="268.51,-26.49 279,-27.96 271.72,-20.27 268.51,-26.49"/>
</g>
<!-- store&#45;web&#45;&gt;billing&#45;svc -->
<g id="edge6" class="edge">
<title>store&#45;web&#45;&gt;billing&#45;svc</title>
<path fill="none" stroke="slategray" d="M98.53,-90.6C111.42,-84 126.12,-76.46 139.74,-69.49"/>
<polygon fill="slategray" stroke="slategray" points="141.23,-72.66 148.54,-64.98 138.04,-66.43 141.23,-72.66"/>
</g>
</g>
</svg>
